<svg width="960" height="576" viewBox="0 0 720 432" xmlns="http://www.w3.org/2000/svg" xmlns:xlink="http://www.w3.org/1999/xlink" stroke-linejoin="round" overflow="hidden"><defs></defs><defs><clipPath id="p878e4c1bfc"><rect x="99.02" y="25.92" width="589.053" height="321.64"/></clipPath></defs><g id="figure_1"><g id="patch_1"><path d="M0 432 720 432 720 0 0 0Z" fill="#FFFFFF"/></g><g id="axes_1"><g id="patch_2"><path d="M99.02 347.56 688.073 347.56 688.073 25.92 99.02 25.92Z" fill="#FFFFFF"/></g><g id="PathCollection_1"><defs><path d="M0 9.13783C2.42338 9.13783 4.74783 8.17501 6.46142 6.46142 8.17501 4.74783 9.13783 2.42338 9.13783 0 9.13783-2.42338 8.17501-4.74783 6.46142-6.46142 4.74783-8.17501 2.42338-9.13783 0-9.13783-2.42338-9.13783-4.74783-8.17501-6.46142-6.46142-8.17501-4.74783-9.13783-2.42338-9.13783 0-9.13783 2.42338-8.17501 4.74783-6.46142 6.46142-4.74783 8.17501-2.42338 9.13783 0 9.13783Z" id="m3ad50cefc5" stroke="#7E6900" stroke-opacity="0.99"/></defs><g clip-path="url(#p878e4c1bfc)"><use x="256.253" y="168.246" width="100%" height="100%" xlink:href="#m3ad50cefc5" stroke="#7E6900" stroke-opacity="0.99" fill="#7E6900" fill-opacity="0.99"></use></g></g><g id="PathCollection_2"><defs><path d="M-0 9.13783 9.13783-9.13783-9.13783-9.13783Z" id="m6586b96128" stroke="#000080" stroke-opacity="0.99"/></defs><g clip-path="url(#p878e4c1bfc)"><use x="256.253" y="139.298" width="100%" height="100%" xlink:href="#m6586b96128" stroke="#000080" stroke-opacity="0.99" fill="#000080" fill-opacity="0.99"></use></g></g><g id="PathCollection_3"><defs><path d="M-9.13783 9.13783 9.13783 9.13783 9.13783-9.13783-9.13783-9.13783Z" id="m3d4133cbcd" stroke="#FF2F01" stroke-opacity="0.99"/></defs><g clip-path="url(#p878e4c1bfc)"><use x="256.253" y="119.196" width="100%" height="100%" xlink:href="#m3d4133cbcd" stroke="#FF2F01" stroke-opacity="0.99" fill="#FF2F01" fill-opacity="0.99"></use></g></g><g id="PathCollection_4"><defs><path d="M0-9.13783-8.6906-2.82375-5.37108 7.39266 5.37108 7.39266 8.6906-2.82375Z" id="m3986468416" stroke="#5A9200" stroke-opacity="0.99"/></defs><g clip-path="url(#p878e4c1bfc)"><use x="159.119" y="221.316" width="100%" height="100%" xlink:href="#m3986468416" stroke="#5A9200" stroke-opacity="0.99" fill="#5A9200" fill-opacity="0.99"></use></g></g><g id="PathCollection_5"><defs><path d="M-0 12.9228 12.9228 0 0-12.9228-12.9228 -0Z" id="m92feca13eb" stroke="#800000" stroke-opacity="0.99"/></defs><g clip-path="url(#p878e4c1bfc)"><use x="644.472" y="160.205" width="100%" height="100%" xlink:href="#m92feca13eb" stroke="#800000" stroke-opacity="0.99" fill="#800000" fill-opacity="0.99"></use></g></g><g id="PathCollection_6"><defs><path d="M0-13.5462-3.04132-4.18601-12.8832-4.18601-4.92095 1.59891-7.96227 10.9591 -0 5.17419 7.96227 10.9591 4.92095 1.59891 12.8832-4.18601 3.04132-4.18601Z" id="m0cca4f3be5" stroke="#0010FF" stroke-opacity="0.99"/></defs><g clip-path="url(#p878e4c1bfc)"><use x="654.216" y="70.1455" width="100%" height="100%" xlink:href="#m0cca4f3be5" stroke="#0010FF" stroke-opacity="0.99" fill="#0010FF" fill-opacity="0.99"></use></g></g><g id="matplotlib.axis_1"><g id="xtick_1"><g id="line2d_1"><path d="M274.057 347.56 274.057 25.92" stroke="#808080" stroke-width="0.5" stroke-dasharray="0.5 0.825" stroke-opacity="0.5" fill="none" clip-path="url(#p878e4c1bfc)"/></g><g id="line2d_2"><defs><path d="M0 0 0 3.5" id="m8cb25bb2d3" stroke="#000000" stroke-width="0.8"/></defs><g><use x="274.057" y="347.56" width="100%" height="100%" xlink:href="#m8cb25bb2d3" stroke="#000000" stroke-width="0.8"></use></g></g><g id="text_1"><g transform="matrix(0.24 0 0 -0.24 254.974 372.796)"><defs><path d="M2034 4250C1709.33 4250 1465 4090 1301 3770 1137.67 3450.67 1056 2970 1056 2328 1056 1688.67 1137.67 1209 1301 889 1465 569 1709.33 409 2034 409 2361.33 409 2606.67 569 2770 889 2934 1209 3016 1688.67 3016 2328 3016 2970 2934 3450.67 2770 3770 2606.67 4090 2361.33 4250 2034 4250ZM2034 4750C2557.33 4750 2957 4543 3233 4129 3509 3715.67 3647 3115.33 3647 2328 3647 1542.67 3509 943 3233 529 2957 115.667 2557.33-91 2034-91 1511.33-91 1112 115.667 836 529 560 943 422 1542.67 422 2328 422 3115.33 560 3715.67 836 4129 1112 4543 1511.33 4750 2034 4750Z" id="DejaVuSans-30" transform="scale(0.015625 0.015625)"/><path d="M684 794 1344 794 1344 0 684 0 684 794Z" id="DejaVuSans-2e" transform="scale(0.015625 0.015625)"/><path d="M794 531 1825 531 1825 4091 703 3866 703 4441 1819 4666 2450 4666 2450 531 3481 531 3481 0 794 0 794 531Z" id="DejaVuSans-31" transform="scale(0.015625 0.015625)"/></defs><use width="100%" height="100%" xlink:href="#DejaVuSans-30"></use><use x="63.623" width="100%" height="100%" xlink:href="#DejaVuSans-2e"></use><use x="95.4102" width="100%" height="100%" xlink:href="#DejaVuSans-31"></use></g></g></g><g id="xtick_2"><g id="line2d_3"><path d="M388.996 347.56 388.996 25.92" stroke="#808080" stroke-width="0.5" stroke-dasharray="0.5 0.825" stroke-opacity="0.5" fill="none" clip-path="url(#p878e4c1bfc)"/></g><g id="line2d_4"><g><use x="388.996" y="347.56" width="100%" height="100%" xlink:href="#m8cb25bb2d3" stroke="#000000" stroke-width="0.8"></use></g></g><g id="text_2"><g transform="matrix(0.24 0 0 -0.24 381.361 372.796)"><use width="100%" height="100%" xlink:href="#DejaVuSans-31"></use></g></g></g><g id="xtick_3"><g id="line2d_5"><path d="M503.934 347.56 503.934 25.92" stroke="#808080" stroke-width="0.5" stroke-dasharray="0.5 0.825" stroke-opacity="0.5" fill="none" clip-path="url(#p878e4c1bfc)"/></g><g id="line2d_6"><g><use x="503.934" y="347.56" width="100%" height="100%" xlink:href="#m8cb25bb2d3" stroke="#000000" stroke-width="0.8"></use></g></g><g id="text_3"><g transform="matrix(0.24 0 0 -0.24 488.664 372.796)"><use width="100%" height="100%" xlink:href="#DejaVuSans-31"></use><use x="63.623" width="100%" height="100%" xlink:href="#DejaVuSans-30"></use></g></g></g><g id="xtick_4"><g id="line2d_7"><path d="M584.273 347.56 584.273 25.92" stroke="#808080" stroke-width="0.5" stroke-dasharray="0.5 0.825" stroke-opacity="0.5" fill="none" clip-path="url(#p878e4c1bfc)"/></g><g id="line2d_8"><g><use x="584.273" y="347.56" width="100%" height="100%" xlink:href="#m8cb25bb2d3" stroke="#000000" stroke-width="0.8"></use></g></g><g id="text_4"><g transform="matrix(0.24 0 0 -0.24 569.003 372.796)"><defs><path d="M691 4666 3169 4666 3169 4134 1269 4134 1269 2991C1360.33 3022.33 1451.67 3045.67 1543 3061 1635 3076.33 1727 3084 1819 3084 2339.67 3084 2752 2941.33 3056 2656 3360.67 2370.67 3513 1984.33 3513 1497 3513 995 3356.67 604.667 3044 326 2731.33 48 2290.67-91 1722-91 1526-91 1326.33-74.3333 1123-41 920.333-7.66667 710.667 42.3333 494 109L494 744C681.333 642 875 566 1075 516 1275 466 1486.33 441 1709 441 2069.67 441 2355 535.667 2565 725 2775.67 914.333 2881 1171.67 2881 1497 2881 1821.67 2775.67 2078.67 2565 2268 2355 2458 2069.67 2553 1709 2553 1540.33 2553 1372 2534.33 1204 2497 1036.67 2459.67 865.667 2401.33 691 2322L691 4666Z" id="DejaVuSans-35" transform="scale(0.015625 0.015625)"/></defs><use width="100%" height="100%" xlink:href="#DejaVuSans-35"></use><use x="63.623" width="100%" height="100%" xlink:href="#DejaVuSans-30"></use></g></g></g><g id="xtick_5"><g id="line2d_9"><path d="M653.473 347.56 653.473 25.92" stroke="#808080" stroke-width="0.5" stroke-dasharray="0.5 0.825" stroke-opacity="0.5" fill="none" clip-path="url(#p878e4c1bfc)"/></g><g id="line2d_10"><g><use x="653.473" y="347.56" width="100%" height="100%" xlink:href="#m8cb25bb2d3" stroke="#000000" stroke-width="0.8"></use></g></g><g id="text_5"><g transform="matrix(0.24 0 0 -0.24 630.568 372.796)"><defs><path d="M1228 531 3431 531 3431 0 469 0 469 531C708.333 779 1034.67 1111.67 1448 1529 1862 1947 2122 2216.67 2228 2338 2430 2564.67 2571 2756.67 2651 2914 2731.67 3071.33 2772 3226 2772 3378 2772 3626 2685 3828 2511 3984 2337 4140.67 2110.33 4219 1831 4219 1633 4219 1424 4184.67 1204 4116 984.667 4047.33 750 3943 500 3803L500 4441C754 4543 991.333 4620 1212 4672 1433.33 4724 1635.67 4750 1819 4750 2302.33 4750 2687.67 4629 2975 4387 3262.33 4145.67 3406 3823 3406 3419 3406 3227 3370 3045 3298 2873 3226.67 2701.67 3096 2499.33 2906 2266 2854 2205.33 2688.33 2030.67 2409 1742 2130.33 1453.33 1736.67 1049.67 1228 531Z" id="DejaVuSans-32" transform="scale(0.015625 0.015625)"/></defs><use width="100%" height="100%" xlink:href="#DejaVuSans-32"></use><use x="63.623" width="100%" height="100%" xlink:href="#DejaVuSans-30"></use><use x="127.246" width="100%" height="100%" xlink:href="#DejaVuSans-30"></use></g></g></g><g id="xtick_6"><g id="line2d_11"><path d="M99.02 347.56 99.02 25.92" stroke="#808080" stroke-width="0.5" stroke-dasharray="0.5 0.825" stroke-opacity="0.1" fill="none" clip-path="url(#p878e4c1bfc)"/></g><g id="line2d_12"><defs><path d="M0 0 0 2" id="m447abfda00" stroke="#000000" stroke-width="0.6"/></defs><g><use x="99.02" y="347.56" width="100%" height="100%" xlink:href="#m447abfda00" stroke="#000000" stroke-width="0.6"></use></g></g></g><g id="xtick_7"><g id="line2d_13"><path d="M113.38 347.56 113.38 25.92" stroke="#808080" stroke-width="0.5" stroke-dasharray="0.5 0.825" stroke-opacity="0.1" fill="none" clip-path="url(#p878e4c1bfc)"/></g><g id="line2d_14"><g><use x="113.38" y="347.56" width="100%" height="100%" xlink:href="#m447abfda00" stroke="#000000" stroke-width="0.6"></use></g></g></g><g id="xtick_8"><g id="line2d_15"><path d="M124.519 347.56 124.519 25.92" stroke="#808080" stroke-width="0.5" stroke-dasharray="0.5 0.825" stroke-opacity="0.1" fill="none" clip-path="url(#p878e4c1bfc)"/></g><g id="line2d_16"><g><use x="124.519" y="347.56" width="100%" height="100%" xlink:href="#m447abfda00" stroke="#000000" stroke-width="0.6"></use></g></g></g><g id="xtick_9"><g id="line2d_17"><path d="M133.62 347.56 133.62 25.92" stroke="#808080" stroke-width="0.5" stroke-dasharray="0.5 0.825" stroke-opacity="0.1" fill="none" clip-path="url(#p878e4c1bfc)"/></g><g id="line2d_18"><g><use x="133.62" y="347.56" width="100%" height="100%" xlink:href="#m447abfda00" stroke="#000000" stroke-width="0.6"></use></g></g></g><g id="xtick_10"><g id="line2d_19"><path d="M141.315 347.56 141.315 25.92" stroke="#808080" stroke-width="0.5" stroke-dasharray="0.5 0.825" stroke-opacity="0.1" fill="none" clip-path="url(#p878e4c1bfc)"/></g><g id="line2d_20"><g><use x="141.315" y="347.56" width="100%" height="100%" xlink:href="#m447abfda00" stroke="#000000" stroke-width="0.6"></use></g></g></g><g id="xtick_11"><g id="line2d_21"><path d="M147.98 347.56 147.98 25.92" stroke="#808080" stroke-width="0.5" stroke-dasharray="0.5 0.825" stroke-opacity="0.1" fill="none" clip-path="url(#p878e4c1bfc)"/></g><g id="line2d_22"><g><use x="147.98" y="347.56" width="100%" height="100%" xlink:href="#m447abfda00" stroke="#000000" stroke-width="0.6"></use></g></g></g><g id="xtick_12"><g id="line2d_23"><path d="M153.86 347.56 153.86 25.92" stroke="#808080" stroke-width="0.5" stroke-dasharray="0.5 0.825" stroke-opacity="0.1" fill="none" clip-path="url(#p878e4c1bfc)"/></g><g id="line2d_24"><g><use x="153.86" y="347.56" width="100%" height="100%" xlink:href="#m447abfda00" stroke="#000000" stroke-width="0.6"></use></g></g></g><g id="xtick_13"><g id="line2d_25"><path d="M193.719 347.56 193.719 25.92" stroke="#808080" stroke-width="0.5" stroke-dasharray="0.5 0.825" stroke-opacity="0.1" fill="none" clip-path="url(#p878e4c1bfc)"/></g><g id="line2d_26"><g><use x="193.719" y="347.56" width="100%" height="100%" xlink:href="#m447abfda00" stroke="#000000" stroke-width="0.6"></use></g></g></g><g id="xtick_14"><g id="line2d_27"><path d="M213.958 347.56 213.958 25.92" stroke="#808080" stroke-width="0.5" stroke-dasharray="0.5 0.825" stroke-opacity="0.1" fill="none" clip-path="url(#p878e4c1bfc)"/></g><g id="line2d_28"><g><use x="213.958" y="347.56" width="100%" height="100%" xlink:href="#m447abfda00" stroke="#000000" stroke-width="0.6"></use></g></g></g><g id="xtick_15"><g id="line2d_29"><path d="M228.319 347.56 228.319 25.92" stroke="#808080" stroke-width="0.5" stroke-dasharray="0.5 0.825" stroke-opacity="0.1" fill="none" clip-path="url(#p878e4c1bfc)"/></g><g id="line2d_30"><g><use x="228.319" y="347.56" width="100%" height="100%" xlink:href="#m447abfda00" stroke="#000000" stroke-width="0.6"></use></g></g></g><g id="xtick_16"><g id="line2d_31"><path d="M239.457 347.56 239.457 25.92" stroke="#808080" stroke-width="0.5" stroke-dasharray="0.5 0.825" stroke-opacity="0.1" fill="none" clip-path="url(#p878e4c1bfc)"/></g><g id="line2d_32"><g><use x="239.457" y="347.56" width="100%" height="100%" xlink:href="#m447abfda00" stroke="#000000" stroke-width="0.6"></use></g></g></g><g id="xtick_17"><g id="line2d_33"><path d="M248.558 347.56 248.558 25.92" stroke="#808080" stroke-width="0.5" stroke-dasharray="0.5 0.825" stroke-opacity="0.1" fill="none" clip-path="url(#p878e4c1bfc)"/></g><g id="line2d_34"><g><use x="248.558" y="347.56" width="100%" height="100%" xlink:href="#m447abfda00" stroke="#000000" stroke-width="0.6"></use></g></g></g><g id="xtick_18"><g id="line2d_35"><path d="M256.253 347.56 256.253 25.92" stroke="#808080" stroke-width="0.5" stroke-dasharray="0.5 0.825" stroke-opacity="0.1" fill="none" clip-path="url(#p878e4c1bfc)"/></g><g id="line2d_36"><g><use x="256.253" y="347.56" width="100%" height="100%" xlink:href="#m447abfda00" stroke="#000000" stroke-width="0.6"></use></g></g></g><g id="xtick_19"><g id="line2d_37"><path d="M262.919 347.56 262.919 25.92" stroke="#808080" stroke-width="0.5" stroke-dasharray="0.5 0.825" stroke-opacity="0.1" fill="none" clip-path="url(#p878e4c1bfc)"/></g><g id="line2d_38"><g><use x="262.919" y="347.56" width="100%" height="100%" xlink:href="#m447abfda00" stroke="#000000" stroke-width="0.6"></use></g></g></g><g id="xtick_20"><g id="line2d_39"><path d="M268.798 347.56 268.798 25.92" stroke="#808080" stroke-width="0.5" stroke-dasharray="0.5 0.825" stroke-opacity="0.1" fill="none" clip-path="url(#p878e4c1bfc)"/></g><g id="line2d_40"><g><use x="268.798" y="347.56" width="100%" height="100%" xlink:href="#m447abfda00" stroke="#000000" stroke-width="0.6"></use></g></g></g><g id="xtick_21"><g id="line2d_41"><path d="M308.657 347.56 308.657 25.92" stroke="#808080" stroke-width="0.5" stroke-dasharray="0.5 0.825" stroke-opacity="0.1" fill="none" clip-path="url(#p878e4c1bfc)"/></g><g id="line2d_42"><g><use x="308.657" y="347.56" width="100%" height="100%" xlink:href="#m447abfda00" stroke="#000000" stroke-width="0.6"></use></g></g></g><g id="xtick_22"><g id="line2d_43"><path d="M328.897 347.56 328.897 25.92" stroke="#808080" stroke-width="0.5" stroke-dasharray="0.5 0.825" stroke-opacity="0.1" fill="none" clip-path="url(#p878e4c1bfc)"/></g><g id="line2d_44"><g><use x="328.897" y="347.56" width="100%" height="100%" xlink:href="#m447abfda00" stroke="#000000" stroke-width="0.6"></use></g></g></g><g id="xtick_23"><g id="line2d_45"><path d="M343.257 347.56 343.257 25.92" stroke="#808080" stroke-width="0.5" stroke-dasharray="0.5 0.825" stroke-opacity="0.1" fill="none" clip-path="url(#p878e4c1bfc)"/></g><g id="line2d_46"><g><use x="343.257" y="347.56" width="100%" height="100%" xlink:href="#m447abfda00" stroke="#000000" stroke-width="0.6"></use></g></g></g><g id="xtick_24"><g id="line2d_47"><path d="M354.396 347.56 354.396 25.92" stroke="#808080" stroke-width="0.5" stroke-dasharray="0.5 0.825" stroke-opacity="0.1" fill="none" clip-path="url(#p878e4c1bfc)"/></g><g id="line2d_48"><g><use x="354.396" y="347.56" width="100%" height="100%" xlink:href="#m447abfda00" stroke="#000000" stroke-width="0.6"></use></g></g></g><g id="xtick_25"><g id="line2d_49"><path d="M363.497 347.56 363.497 25.92" stroke="#808080" stroke-width="0.5" stroke-dasharray="0.5 0.825" stroke-opacity="0.1" fill="none" clip-path="url(#p878e4c1bfc)"/></g><g id="line2d_50"><g><use x="363.497" y="347.56" width="100%" height="100%" xlink:href="#m447abfda00" stroke="#000000" stroke-width="0.6"></use></g></g></g><g id="xtick_26"><g id="line2d_51"><path d="M371.192 347.56 371.192 25.92" stroke="#808080" stroke-width="0.5" stroke-dasharray="0.5 0.825" stroke-opacity="0.1" fill="none" clip-path="url(#p878e4c1bfc)"/></g><g id="line2d_52"><g><use x="371.192" y="347.56" width="100%" height="100%" xlink:href="#m447abfda00" stroke="#000000" stroke-width="0.6"></use></g></g></g><g id="xtick_27"><g id="line2d_53"><path d="M377.857 347.56 377.857 25.92" stroke="#808080" stroke-width="0.5" stroke-dasharray="0.5 0.825" stroke-opacity="0.1" fill="none" clip-path="url(#p878e4c1bfc)"/></g><g id="line2d_54"><g><use x="377.857" y="347.56" width="100%" height="100%" xlink:href="#m447abfda00" stroke="#000000" stroke-width="0.6"></use></g></g></g><g id="xtick_28"><g id="line2d_55"><path d="M383.737 347.56 383.737 25.92" stroke="#808080" stroke-width="0.5" stroke-dasharray="0.5 0.825" stroke-opacity="0.1" fill="none" clip-path="url(#p878e4c1bfc)"/></g><g id="line2d_56"><g><use x="383.737" y="347.56" width="100%" height="100%" xlink:href="#m447abfda00" stroke="#000000" stroke-width="0.6"></use></g></g></g><g id="xtick_29"><g id="line2d_57"><path d="M423.596 347.56 423.596 25.92" stroke="#808080" stroke-width="0.5" stroke-dasharray="0.5 0.825" stroke-opacity="0.1" fill="none" clip-path="url(#p878e4c1bfc)"/></g><g id="line2d_58"><g><use x="423.596" y="347.56" width="100%" height="100%" xlink:href="#m447abfda00" stroke="#000000" stroke-width="0.6"></use></g></g></g><g id="xtick_30"><g id="line2d_59"><path d="M443.835 347.56 443.835 25.92" stroke="#808080" stroke-width="0.5" stroke-dasharray="0.5 0.825" stroke-opacity="0.1" fill="none" clip-path="url(#p878e4c1bfc)"/></g><g id="line2d_60"><g><use x="443.835" y="347.56" width="100%" height="100%" xlink:href="#m447abfda00" stroke="#000000" stroke-width="0.6"></use></g></g></g><g id="xtick_31"><g id="line2d_61"><path d="M458.196 347.56 458.196 25.92" stroke="#808080" stroke-width="0.5" stroke-dasharray="0.5 0.825" stroke-opacity="0.1" fill="none" clip-path="url(#p878e4c1bfc)"/></g><g id="line2d_62"><g><use x="458.196" y="347.56" width="100%" height="100%" xlink:href="#m447abfda00" stroke="#000000" stroke-width="0.6"></use></g></g></g><g id="xtick_32"><g id="line2d_63"><path d="M469.334 347.56 469.334 25.92" stroke="#808080" stroke-width="0.5" stroke-dasharray="0.5 0.825" stroke-opacity="0.1" fill="none" clip-path="url(#p878e4c1bfc)"/></g><g id="line2d_64"><g><use x="469.334" y="347.56" width="100%" height="100%" xlink:href="#m447abfda00" stroke="#000000" stroke-width="0.6"></use></g></g></g><g id="xtick_33"><g id="line2d_65"><path d="M478.435 347.56 478.435 25.92" stroke="#808080" stroke-width="0.5" stroke-dasharray="0.5 0.825" stroke-opacity="0.1" fill="none" clip-path="url(#p878e4c1bfc)"/></g><g id="line2d_66"><g><use x="478.435" y="347.56" width="100%" height="100%" xlink:href="#m447abfda00" stroke="#000000" stroke-width="0.6"></use></g></g></g><g id="xtick_34"><g id="line2d_67"><path d="M486.13 347.56 486.13 25.92" stroke="#808080" stroke-width="0.5" stroke-dasharray="0.5 0.825" stroke-opacity="0.1" fill="none" clip-path="url(#p878e4c1bfc)"/></g><g id="line2d_68"><g><use x="486.13" y="347.56" width="100%" height="100%" xlink:href="#m447abfda00" stroke="#000000" stroke-width="0.6"></use></g></g></g><g id="xtick_35"><g id="line2d_69"><path d="M492.796 347.56 492.796 25.92" stroke="#808080" stroke-width="0.5" stroke-dasharray="0.5 0.825" stroke-opacity="0.1" fill="none" clip-path="url(#p878e4c1bfc)"/></g><g id="line2d_70"><g><use x="492.796" y="347.56" width="100%" height="100%" xlink:href="#m447abfda00" stroke="#000000" stroke-width="0.6"></use></g></g></g><g id="xtick_36"><g id="line2d_71"><path d="M498.675 347.56 498.675 25.92" stroke="#808080" stroke-width="0.5" stroke-dasharray="0.5 0.825" stroke-opacity="0.1" fill="none" clip-path="url(#p878e4c1bfc)"/></g><g id="line2d_72"><g><use x="498.675" y="347.56" width="100%" height="100%" xlink:href="#m447abfda00" stroke="#000000" stroke-width="0.6"></use></g></g></g><g id="xtick_37"><g id="line2d_73"><path d="M538.534 347.56 538.534 25.92" stroke="#808080" stroke-width="0.5" stroke-dasharray="0.5 0.825" stroke-opacity="0.1" fill="none" clip-path="url(#p878e4c1bfc)"/></g><g id="line2d_74"><g><use x="538.534" y="347.56" width="100%" height="100%" xlink:href="#m447abfda00" stroke="#000000" stroke-width="0.6"></use></g></g></g><g id="xtick_38"><g id="line2d_75"><path d="M558.774 347.56 558.774 25.92" stroke="#808080" stroke-width="0.5" stroke-dasharray="0.5 0.825" stroke-opacity="0.1" fill="none" clip-path="url(#p878e4c1bfc)"/></g><g id="line2d_76"><g><use x="558.774" y="347.56" width="100%" height="100%" xlink:href="#m447abfda00" stroke="#000000" stroke-width="0.6"></use></g></g></g><g id="xtick_39"><g id="line2d_77"><path d="M573.134 347.56 573.134 25.92" stroke="#808080" stroke-width="0.5" stroke-dasharray="0.5 0.825" stroke-opacity="0.1" fill="none" clip-path="url(#p878e4c1bfc)"/></g><g id="line2d_78"><g><use x="573.134" y="347.56" width="100%" height="100%" xlink:href="#m447abfda00" stroke="#000000" stroke-width="0.6"></use></g></g></g><g id="xtick_40"><g id="line2d_79"><path d="M593.374 347.56 593.374 25.92" stroke="#808080" stroke-width="0.5" stroke-dasharray="0.5 0.825" stroke-opacity="0.1" fill="none" clip-path="url(#p878e4c1bfc)"/></g><g id="line2d_80"><g><use x="593.374" y="347.56" width="100%" height="100%" xlink:href="#m447abfda00" stroke="#000000" stroke-width="0.6"></use></g></g></g><g id="xtick_41"><g id="line2d_81"><path d="M601.069 347.56 601.069 25.92" stroke="#808080" stroke-width="0.5" stroke-dasharray="0.5 0.825" stroke-opacity="0.1" fill="none" clip-path="url(#p878e4c1bfc)"/></g><g id="line2d_82"><g><use x="601.069" y="347.56" width="100%" height="100%" xlink:href="#m447abfda00" stroke="#000000" stroke-width="0.6"></use></g></g></g><g id="xtick_42"><g id="line2d_83"><path d="M607.734 347.56 607.734 25.92" stroke="#808080" stroke-width="0.5" stroke-dasharray="0.5 0.825" stroke-opacity="0.1" fill="none" clip-path="url(#p878e4c1bfc)"/></g><g id="line2d_84"><g><use x="607.734" y="347.56" width="100%" height="100%" xlink:href="#m447abfda00" stroke="#000000" stroke-width="0.6"></use></g></g></g><g id="xtick_43"><g id="line2d_85"><path d="M613.614 347.56 613.614 25.92" stroke="#808080" stroke-width="0.5" stroke-dasharray="0.5 0.825" stroke-opacity="0.1" fill="none" clip-path="url(#p878e4c1bfc)"/></g><g id="line2d_86"><g><use x="613.614" y="347.56" width="100%" height="100%" xlink:href="#m447abfda00" stroke="#000000" stroke-width="0.6"></use></g></g></g><g id="xtick_44"><g id="line2d_87"><path d="M673.712 347.56 673.712 25.92" stroke="#808080" stroke-width="0.5" stroke-dasharray="0.5 0.825" stroke-opacity="0.1" fill="none" clip-path="url(#p878e4c1bfc)"/></g><g id="line2d_88"><g><use x="673.712" y="347.56" width="100%" height="100%" xlink:href="#m447abfda00" stroke="#000000" stroke-width="0.6"></use></g></g></g><g id="xtick_45"><g id="line2d_89"><path d="M688.073 347.56 688.073 25.92" stroke="#808080" stroke-width="0.5" stroke-dasharray="0.5 0.825" stroke-opacity="0.1" fill="none" clip-path="url(#p878e4c1bfc)"/></g><g id="line2d_90"><g><use x="688.073" y="347.56" width="100%" height="100%" xlink:href="#m447abfda00" stroke="#000000" stroke-width="0.6"></use></g></g></g><g id="text_6"><g transform="matrix(0.24 0 0 -0.24 257.92 400.024)"><defs><path d="M2297 2597C2549 2597 2729.67 2643.67 2839 2737 2948.33 2831 3003 2985.33 3003 3200 3003 3412.67 2948.33 3564.67 2839 3656 2729.67 3748 2549 3794 2297 3794L1791 3794 1791 2597 2297 2597ZM1791 1766 1791 0 588 0 588 4666 2425 4666C3039.67 4666 3490 4562.67 3776 4356 4062.67 4150 4206 3824 4206 3378 4206 3070 4131.33 2817 3982 2619 3833.33 2421 3609 2275 3309 2181 3473.67 2143.67 3621 2058.67 3751 1926 3881.67 1794 4013.67 1593.67 4147 1325L4800 0 3519 0 2950 1159C2835.33 1392.33 2719 1551.67 2601 1637 2483.67 1723 2327 1766 2131 1766L1791 1766Z" id="DejaVuSans-Bold-52" transform="scale(0.015625 0.015625)"/><path d="M4031 1759 4031 1441 1416 1441C1442.67 1178.33 1537.33 981.333 1700 850 1862.67 718.667 2089.67 653 2381 653 2616.33 653 2857.33 688 3104 758 3351.33 828 3605.33 933.667 3866 1075L3866 213C3601.33 113 3336.67 37.3333 3072-14 2807.33-65.3333 2542.67-91 2278-91 1644.67-91 1152.33 70 801 392 450.333 714 275 1165.67 275 1747 275 2317.67 447.333 2766.33 792 3093 1136.67 3420.33 1611.33 3584 2216 3584 2766 3584 3206 3418.33 3536 3087 3866 2756.33 4031 2313.67 4031 1759ZM2881 2131C2881 2343.67 2819 2515 2695 2645 2571 2775.67 2409 2841 2209 2841 1992.33 2841 1816.33 2780 1681 2658 1545.67 2536 1461.33 2360.33 1428 2131L2881 2131Z" id="DejaVuSans-Bold-65" transform="scale(0.015625 0.015625)"/><path d="M4056 2131 4056 0 2931 0 2931 347 2931 1631C2931 1933 2924.33 2141.33 2911 2256 2897.67 2370.67 2874.33 2455 2841 2509 2797 2582.33 2737.33 2639.33 2662 2680 2587.33 2720.67 2502 2741 2406 2741 2172.67 2741 1989.33 2650.67 1856 2470 1722.67 2290 1656 2040.67 1656 1722L1656 0 538 0 538 3500 1656 3500 1656 2988C1824.67 3192 2003.67 3342.33 2193 3439 2383 3535.67 2592.67 3584 2822 3584 3226 3584 3532.67 3460 3742 3212 3951.33 2964.67 4056 2604.33 4056 2131Z" id="DejaVuSans-Bold-6e" transform="scale(0.015625 0.015625)"/><path d="M2919 2988 2919 4863 4044 4863 4044 0 2919 0 2919 506C2765 300 2595 149 2409 53 2223.67-43 2009.33-91 1766-91 1334.67-91 980.333 80.3333 703 423 426.333 766.333 288 1207.67 288 1747 288 2286.33 426.333 2727.33 703 3070 980.333 3412.67 1334.67 3584 1766 3584 2007.33 3584 2221.33 3535.67 2408 3439 2594.67 3342.33 2765 3192 2919 2988ZM2181 722C2421 722 2604 809.333 2730 984 2856 1159.33 2919 1413.67 2919 1747 2919 2080.33 2856 2334.33 2730 2509 2604 2684.33 2421 2772 2181 2772 1943.67 2772 1762 2684.33 1636 2509 1510 2334.33 1447 2080.33 1447 1747 1447 1413.67 1510 1159.33 1636 984 1762 809.333 1943.67 722 2181 722Z" id="DejaVuSans-Bold-64" transform="scale(0.015625 0.015625)"/><path d="M3138 2547C3040 2593 2942.33 2626.67 2845 2648 2748.33 2670 2651 2681 2553 2681 2265.67 2681 2044.33 2588.67 1889 2404 1733.67 2220 1656 1956.33 1656 1613L1656 0 538 0 538 3500 1656 3500 1656 2925C1800 3154.33 1965 3321.33 2151 3426 2337.67 3531.33 2561.33 3584 2822 3584 2859.33 3584 2899.67 3582.33 2943 3579 2987 3576.33 3050.67 3569.67 3134 3559L3138 2547Z" id="DejaVuSans-Bold-72" transform="scale(0.015625 0.015625)"/><path d="" id="DejaVuSans-Bold-20" transform="scale(0.015625 0.015625)"/><path d="M3834 4519 3834 3531C3578 3645.67 3328 3732 3084 3790 2840.67 3848.67 2610.67 3878 2394 3878 2106.67 3878 1894 3838.33 1756 3759 1618.67 3680.33 1550 3557.67 1550 3391 1550 3265.67 1596.33 3168 1689 3098 1781.67 3028.67 1950 2969 2194 2919L2706 2816C3224.67 2711.33 3593.33 2552.67 3812 2340 4031.33 2128 4141 1826 4141 1434 4141 920 3988.33 537.333 3683 286 3377.67 34.6667 2911.33-91 2284-91 1988.67-91 1692-62.6667 1394-6 1096 50 798 133.333 500 244L500 1259C798 1101 1086 981.667 1364 901 1642 821 1910.33 781 2169 781 2431.67 781 2632.67 824.667 2772 912 2911.33 1000 2981 1125.33 2981 1288 2981 1433.33 2933.67 1545.67 2839 1625 2744.33 1704.33 2555.33 1775.33 2272 1838L1806 1941C1339.33 2041 998 2200.33 782 2419 566.667 2637.67 459 2932.33 459 3303 459 3767.67 609 4125 909 4375 1209 4625 1640.33 4750 2203 4750 2459.67 4750 2723.33 4730.67 2994 4692 3264.67 4653.33 3544.67 4595.67 3834 4519Z" id="DejaVuSans-Bold-53" transform="scale(0.015625 0.015625)"/><path d="M1656 506 1656-1331 538-1331 538 3500 1656 3500 1656 2988C1810.67 3192 1981.67 3342.33 2169 3439 2356.33 3535.67 2572 3584 2816 3584 3247.33 3584 3601.33 3412.67 3878 3070 4155.33 2727.33 4294 2286.33 4294 1747 4294 1207.67 4155.33 766.333 3878 423 3601.33 80.3333 3247.33-91 2816-91 2572-91 2356.33-42.6667 2169 54 1981.67 151.333 1810.67 302 1656 506ZM2400 2772C2160.67 2772 1976.67 2684 1848 2508 1720 2332 1656 2078.33 1656 1747 1656 1415.67 1720 1162 1848 986 1976.67 810 2160.67 722 2400 722 2639.33 722 2822 809.333 2948 984 3074.67 1159.33 3138 1413.67 3138 1747 3138 2080.33 3074.67 2334.33 2948 2509 2822 2684.33 2639.33 2772 2400 2772Z" id="DejaVuSans-Bold-70" transform="scale(0.015625 0.015625)"/><path d="M2413-844 1484-844C1165.33-329.333 930 159.667 778 623 626 1087 550 1547 550 2003 550 2459.67 626.333 2921.67 779 3389 932.333 3857 1167.33 4346 1484 4856L2413 4856C2146.33 4362.67 1946.33 3880 1813 3408 1679.67 2936 1613 2469.67 1613 2009 1613 1549 1679 1082.33 1811 609 1943 136.333 2143.67-348 2413-844Z" id="DejaVuSans-Bold-28" transform="scale(0.015625 0.015625)"/><path d="M588 4666 3834 4666 3834 3756 1791 3756 1791 2888 3713 2888 3713 1978 1791 1978 1791 0 588 0 588 4666Z" id="DejaVuSans-Bold-46" transform="scale(0.015625 0.015625)"/><path d="M588 4666 2584 4666C3178 4666 3633.67 4534 3951 4270 4269 4006.67 4428 3631.33 4428 3144 4428 2654 4269 2277.33 3951 2014 3633.67 1750.67 3178 1619 2584 1619L1791 1619 1791 0 588 0 588 4666ZM1791 3794 1791 2491 2456 2491C2689.33 2491 2869.67 2547.67 2997 2661 3124.33 2774.33 3188 2935.33 3188 3144 3188 3352 3124.33 3512.33 2997 3625 2869.67 3737.67 2689.33 3794 2456 3794L1791 3794Z" id="DejaVuSans-Bold-50" transform="scale(0.015625 0.015625)"/><path d="M513-844C779.667-348 979.667 136.333 1113 609 1246.33 1082.33 1313 1549 1313 2009 1313 2469.67 1246.33 2936 1113 3408 979.667 3880 779.667 4362.67 513 4856L1441 4856C1757.67 4346 1992.33 3857 2145 3389 2298.33 2921.67 2375 2459.67 2375 2003 2375 1547 2299 1087 2147 623 1995 159.667 1759.67-329.333 1441-844L513-844Z" id="DejaVuSans-Bold-29" transform="scale(0.015625 0.015625)"/></defs><use width="100%" height="100%" xlink:href="#DejaVuSans-Bold-52"></use><use x="77.002" width="100%" height="100%" xlink:href="#DejaVuSans-Bold-65"></use><use x="144.824" width="100%" height="100%" xlink:href="#DejaVuSans-Bold-6e"></use><use x="216.016" width="100%" height="100%" xlink:href="#DejaVuSans-Bold-64"></use><use x="287.598" width="100%" height="100%" xlink:href="#DejaVuSans-Bold-65"></use><use x="355.42" width="100%" height="100%" xlink:href="#DejaVuSans-Bold-72"></use><use x="404.736" width="100%" height="100%" xlink:href="#DejaVuSans-Bold-20"></use><use x="439.551" width="100%" height="100%" xlink:href="#DejaVuSans-Bold-53"></use><use x="511.572" width="100%" height="100%" xlink:href="#DejaVuSans-Bold-70"></use><use x="583.154" width="100%" height="100%" xlink:href="#DejaVuSans-Bold-65"></use><use x="650.977" width="100%" height="100%" xlink:href="#DejaVuSans-Bold-65"></use><use x="718.799" width="100%" height="100%" xlink:href="#DejaVuSans-Bold-64"></use><use x="790.381" width="100%" height="100%" xlink:href="#DejaVuSans-Bold-20"></use><use x="825.195" width="100%" height="100%" xlink:href="#DejaVuSans-Bold-28"></use><use x="870.898" width="100%" height="100%" xlink:href="#DejaVuSans-Bold-46"></use><use x="939.209" width="100%" height="100%" xlink:href="#DejaVuSans-Bold-50"></use><use x="1012.5" width="100%" height="100%" xlink:href="#DejaVuSans-Bold-53"></use><use x="1084.52" width="100%" height="100%" xlink:href="#DejaVuSans-Bold-29"></use></g></g></g><g id="matplotlib.axis_2"><g id="ytick_1"><g id="line2d_91"><path d="M99.02 347.56 688.073 347.56" stroke="#808080" stroke-width="0.5" stroke-dasharray="0.5 0.825" stroke-opacity="0.5" fill="none" clip-path="url(#p878e4c1bfc)"/></g><g id="line2d_92"><defs><path d="M0 0-3.5 0" id="md3e7362333" stroke="#000000" stroke-width="0.8"/></defs><g><use x="99.02" y="347.56" width="100%" height="100%" xlink:href="#md3e7362333" stroke="#000000" stroke-width="0.8"></use></g></g><g id="text_7"><g transform="matrix(0.24 0 0 -0.24 53.8525 356.678)"><defs><path d="M2419 4116 825 1625 2419 1625 2419 4116ZM2253 4666 3047 4666 3047 1625 3713 1625 3713 1100 3047 1100 3047 0 2419 0 2419 1100 313 1100 313 1709 2253 4666Z" id="DejaVuSans-34" transform="scale(0.015625 0.015625)"/></defs><use width="100%" height="100%" xlink:href="#DejaVuSans-30"></use><use x="63.623" width="100%" height="100%" xlink:href="#DejaVuSans-2e"></use><use x="95.4102" width="100%" height="100%" xlink:href="#DejaVuSans-34"></use></g></g></g><g id="ytick_2"><g id="line2d_93"><path d="M99.02 267.15 688.073 267.15" stroke="#808080" stroke-width="0.5" stroke-dasharray="0.5 0.825" stroke-opacity="0.5" fill="none" clip-path="url(#p878e4c1bfc)"/></g><g id="line2d_94"><g><use x="99.02" y="267.15" width="100%" height="100%" xlink:href="#md3e7362333" stroke="#000000" stroke-width="0.8"></use></g></g><g id="text_8"><g transform="matrix(0.24 0 0 -0.24 53.8525 276.268)"><use width="100%" height="100%" xlink:href="#DejaVuSans-30"></use><use x="63.623" width="100%" height="100%" xlink:href="#DejaVuSans-2e"></use><use x="95.4102" width="100%" height="100%" xlink:href="#DejaVuSans-35"></use></g></g></g><g id="ytick_3"><g id="line2d_95"><path d="M99.02 186.74 688.073 186.74" stroke="#808080" stroke-width="0.5" stroke-dasharray="0.5 0.825" stroke-opacity="0.5" fill="none" clip-path="url(#p878e4c1bfc)"/></g><g id="line2d_96"><g><use x="99.02" y="186.74" width="100%" height="100%" xlink:href="#md3e7362333" stroke="#000000" stroke-width="0.8"></use></g></g><g id="text_9"><g transform="matrix(0.24 0 0 -0.24 53.8525 195.858)"><defs><path d="M2113 2584C1829.67 2584 1605 2487 1439 2293 1273.67 2099.67 1191 1834.33 1191 1497 1191 1161.67 1273.67 896.333 1439 701 1605 506.333 1829.67 409 2113 409 2396.33 409 2620.67 506.333 2786 701 2951.33 896.333 3034 1161.67 3034 1497 3034 1834.33 2951.33 2099.67 2786 2293 2620.67 2487 2396.33 2584 2113 2584ZM3366 4563 3366 3988C3207.33 4062.67 3047.33 4119.67 2886 4159 2724.67 4199 2564.67 4219 2406 4219 1989.33 4219 1671 4078.33 1451 3797 1231.67 3515.67 1106.33 3090.67 1075 2522 1197.67 2703.33 1351.67 2842.33 1537 2939 1723 3035.67 1927.33 3084 2150 3084 2618.67 3084 2989 2941.67 3261 2657 3533 2373 3669 1986.33 3669 1497 3669 1017.67 3527.33 633 3244 343 2960.67 53.6667 2583.67-91 2113-91 1573-91 1160.33 115.667 875 529 589.667 943 447 1542.67 447 2328 447 3065.33 622 3653.33 972 4092 1322 4530.67 1791.67 4750 2381 4750 2539.67 4750 2699.67 4734.33 2861 4703 3022.33 4671.67 3190.67 4625 3366 4563Z" id="DejaVuSans-36" transform="scale(0.015625 0.015625)"/></defs><use width="100%" height="100%" xlink:href="#DejaVuSans-30"></use><use x="63.623" width="100%" height="100%" xlink:href="#DejaVuSans-2e"></use><use x="95.4102" width="100%" height="100%" xlink:href="#DejaVuSans-36"></use></g></g></g><g id="ytick_4"><g id="line2d_97"><path d="M99.02 106.33 688.073 106.33" stroke="#808080" stroke-width="0.5" stroke-dasharray="0.5 0.825" stroke-opacity="0.5" fill="none" clip-path="url(#p878e4c1bfc)"/></g><g id="line2d_98"><g><use x="99.02" y="106.33" width="100%" height="100%" xlink:href="#md3e7362333" stroke="#000000" stroke-width="0.8"></use></g></g><g id="text_10"><g transform="matrix(0.24 0 0 -0.24 53.8525 115.448)"><defs><path d="M525 4666 3525 4666 3525 4397 1831 0 1172 0 2766 4134 525 4134 525 4666Z" id="DejaVuSans-37" transform="scale(0.015625 0.015625)"/></defs><use width="100%" height="100%" xlink:href="#DejaVuSans-30"></use><use x="63.623" width="100%" height="100%" xlink:href="#DejaVuSans-2e"></use><use x="95.4102" width="100%" height="100%" xlink:href="#DejaVuSans-37"></use></g></g></g><g id="text_11"><g transform="matrix(1.46958e-17 -0.24 -0.24 -1.46958e-17 44.6737 357.656)"><defs><path d="M538 3500 1656 3500 1656 0 538 0 538 3500ZM538 4863 1656 4863 1656 3950 538 3950 538 4863Z" id="DejaVuSans-Bold-69" transform="scale(0.015625 0.015625)"/><path d="M2919 594C2765 390 2595 240 2409 144 2223.67 48 2009.33 0 1766 0 1338.67 0 985.333 168 706 504 427.333 840.667 288 1269.67 288 1791 288 2313.67 427.333 2742 706 3076 985.333 3410.67 1338.67 3578 1766 3578 2009.33 3578 2223.67 3530 2409 3434 2595 3338.67 2765 3187.67 2919 2981L2919 3500 4044 3500 4044 353C4044-209.667 3866.33-639.333 3511-936 3155.67-1232.67 2640.67-1381 1966-1381 1747.33-1381 1535.67-1364.33 1331-1331 1127-1297.67 922-1246.67 716-1178L716-306C911.333-418.667 1102.67-502.667 1290-558 1478-613.333 1666.67-641 1856-641 2222.67-641 2491.33-560.667 2662-400 2833.33-239.333 2919 11.6667 2919 353L2919 594ZM2181 2772C1949.67 2772 1769.33 2686.33 1640 2515 1511.33 2344.33 1447 2103 1447 1791 1447 1469.67 1509.33 1226.33 1634 1061 1759.33 895.667 1941.67 813 2181 813 2414.33 813 2595.67 898.333 2725 1069 2854.33 1239.67 2919 1480.33 2919 1791 2919 2103 2854.33 2344.33 2725 2515 2595.67 2686.33 2414.33 2772 2181 2772Z" id="DejaVuSans-Bold-67" transform="scale(0.015625 0.015625)"/><path d="M2847-84 2753-84C1984.33-84 1386.33 128.333 959 553 532.333 978.333 319 1570 319 2328 319 3084.67 532 3677.33 958 4106 1384 4535.33 1971 4750 2719 4750 3475 4750 4064 4537.33 4486 4112 4908 3687.33 5119 3092.67 5119 2328 5119 1803.33 5007 1351.33 4783 972 4559 592.667 4236.67 307.333 3816 116L4756-934 3609-934 2847-84ZM2719 3878C2352.33 3878 2068 3742.67 1866 3472 1664 3201.33 1563 2820 1563 2328 1563 1828 1661.67 1445 1859 1179 2057 913.667 2343.67 781 2719 781 3087.67 781 3373 916.333 3575 1187 3777 1458.33 3878 1838.67 3878 2328 3878 2820 3777 3201.33 3575 3472 3373 3742.67 3087.67 3878 2719 3878Z" id="DejaVuSans-Bold-51" transform="scale(0.015625 0.015625)"/><path d="M500 1363 500 3500 1625 3500 1625 3150C1625 2960.67 1624 2722.67 1622 2436 1620 2149.33 1619 1958.33 1619 1863 1619 1581.67 1626.33 1379 1641 1255 1655.67 1131 1680.67 1040.67 1716 984 1761.33 911.333 1821 855 1895 815 1969 775.667 2054 756 2150 756 2383.33 756 2566.67 845.667 2700 1025 2833.33 1204.33 2900 1453.33 2900 1772L2900 3500 4019 3500 4019 0 2900 0 2900 506C2731.33 302 2552.67 151.333 2364 54 2175.33-42.6667 1967.67-91 1741-91 1336.33-91 1028.33 33 817 281 605.667 529 500 889.667 500 1363Z" id="DejaVuSans-Bold-75" transform="scale(0.015625 0.015625)"/><path d="M2106 1575C1872.67 1575 1697 1535.33 1579 1456 1461.67 1377.33 1403 1260.67 1403 1106 1403 964.667 1450.33 853.667 1545 773 1640.33 693 1772.33 653 1941 653 2151 653 2328 728.333 2472 879 2616 1030.33 2688 1219.67 2688 1447L2688 1575 2106 1575ZM3816 1997 3816 0 2688 0 2688 519C2538 306.333 2369 151.333 2181 54 1993.67-42.6667 1765.67-91 1497-91 1134.33-91 840 14.6667 614 226 388 438 275 712.667 275 1050 275 1460.67 416 1761.67 698 1953 980.667 2145 1424 2241 2028 2241L2688 2241 2688 2328C2688 2505.33 2618 2635 2478 2717 2338.67 2799.67 2121 2841 1825 2841 1585.67 2841 1362.67 2817 1156 2769 950 2721 758.333 2649 581 2553L581 3406C821 3464.67 1061.67 3509 1303 3539 1545 3569 1786.67 3584 2028 3584 2659.33 3584 3115 3459.67 3395 3211 3675.67 2962.33 3816 2557.67 3816 1997Z" id="DejaVuSans-Bold-61" transform="scale(0.015625 0.015625)"/><path d="M538 4863 1656 4863 1656 0 538 0 538 4863Z" id="DejaVuSans-Bold-6c" transform="scale(0.015625 0.015625)"/><path d="M1759 4494 1759 3500 2913 3500 2913 2700 1759 2700 1759 1216C1759 1053.33 1791.33 943.333 1856 886 1920.67 828.667 2049 800 2241 800L2816 800 2816 0 1856 0C1414.67 0 1101.67 92 917 276 733 460.667 641 774 641 1216L641 2700 84 2700 84 3500 641 3500 641 4494 1759 4494Z" id="DejaVuSans-Bold-74" transform="scale(0.015625 0.015625)"/><path d="M78 3500 1197 3500 2138 1125 2938 3500 4056 3500 2584-331C2436.67-721 2264.33-993.333 2067-1148 1870.33-1303.33 1610.67-1381 1288-1381L641-1381 641-647 991-647C1180.33-647 1318-616.667 1404-556 1490.67-496 1558-387.667 1606-231L1638-134 78 3500Z" id="DejaVuSans-Bold-79" transform="scale(0.015625 0.015625)"/><path d="M588 4666 1791 4666 1791 0 588 0 588 4666Z" id="DejaVuSans-Bold-49" transform="scale(0.015625 0.015625)"/><path d="M588 4666 2119 4666 3181 2169 4250 4666 5778 4666 5778 0 4641 0 4641 3413 3566 897 2803 897 1728 3413 1728 0 588 0 588 4666Z" id="DejaVuSans-Bold-4d" transform="scale(0.015625 0.015625)"/></defs><use width="100%" height="100%" xlink:href="#DejaVuSans-Bold-52"></use><use x="77.002" width="100%" height="100%" xlink:href="#DejaVuSans-Bold-65"></use><use x="144.824" width="100%" height="100%" xlink:href="#DejaVuSans-Bold-6e"></use><use x="216.016" width="100%" height="100%" xlink:href="#DejaVuSans-Bold-64"></use><use x="287.598" width="100%" height="100%" xlink:href="#DejaVuSans-Bold-65"></use><use x="355.42" width="100%" height="100%" xlink:href="#DejaVuSans-Bold-72"></use><use x="404.736" width="100%" height="100%" xlink:href="#DejaVuSans-Bold-69"></use><use x="439.014" width="100%" height="100%" xlink:href="#DejaVuSans-Bold-6e"></use><use x="510.205" width="100%" height="100%" xlink:href="#DejaVuSans-Bold-67"></use><use x="581.787" width="100%" height="100%" xlink:href="#DejaVuSans-Bold-20"></use><use x="616.602" width="100%" height="100%" xlink:href="#DejaVuSans-Bold-51"></use><use x="701.611" width="100%" height="100%" xlink:href="#DejaVuSans-Bold-75"></use><use x="772.803" width="100%" height="100%" xlink:href="#DejaVuSans-Bold-61"></use><use x="840.283" width="100%" height="100%" xlink:href="#DejaVuSans-Bold-6c"></use><use x="874.561" width="100%" height="100%" xlink:href="#DejaVuSans-Bold-69"></use><use x="908.838" width="100%" height="100%" xlink:href="#DejaVuSans-Bold-74"></use><use x="956.641" width="100%" height="100%" xlink:href="#DejaVuSans-Bold-79"></use><use x="1021.83" width="100%" height="100%" xlink:href="#DejaVuSans-Bold-20"></use><use x="1056.64" width="100%" height="100%" xlink:href="#DejaVuSans-Bold-28"></use><use x="1102.34" width="100%" height="100%" xlink:href="#DejaVuSans-Bold-53"></use><use x="1169.87" width="100%" height="100%" xlink:href="#DejaVuSans-Bold-53"></use><use x="1241.89" width="100%" height="100%" xlink:href="#DejaVuSans-Bold-49"></use><use x="1279.09" width="100%" height="100%" xlink:href="#DejaVuSans-Bold-4d"></use><use x="1378.61" width="100%" height="100%" xlink:href="#DejaVuSans-Bold-29"></use></g></g></g><g id="patch_3"><path d="M99.02 347.56 99.02 25.92" stroke="#000000" stroke-width="0.8" stroke-linecap="square" stroke-linejoin="miter" fill="none"/></g><g id="patch_4"><path d="M99.02 347.56 688.073 347.56" stroke="#000000" stroke-width="0.8" stroke-linecap="square" stroke-linejoin="miter" fill="none"/></g><g id="text_12"><g fill="#7E6900" opacity="0.99" transform="matrix(0.24 0 0 -0.24 231.253 191.254)"><defs><path d="M2841 2188C2976.33 2142 3108 2044 3236 1894 3364 1744 3492.67 1537.67 3622 1275L4263 0 3584 0 2988 1197C2833.33 1509.67 2683.67 1717 2539 1819 2394.33 1921 2197 1972 1947 1972L1259 1972 1259 0 628 0 628 4666 2053 4666C2586.33 4666 2984.33 4554.33 3247 4331 3509.67 4108.33 3641 3772 3641 3322 3641 3028 3572.67 2784 3436 2590 3299.33 2396.67 3101 2262.67 2841 2188ZM1259 4147 1259 2491 2053 2491C2357 2491 2586.67 2561.33 2742 2702 2897.33 2842.67 2975 3049.33 2975 3322 2975 3594.67 2897.33 3800.33 2742 3939 2586.67 4077.67 2357 4147 2053 4147L1259 4147Z" id="DejaVuSans-52" transform="scale(0.015625 0.015625)"/><path d="M3597 1894 3597 1613 953 1613C978.333 1217 1097.67 915.333 1311 708 1524.33 500.667 1821.67 397 2203 397 2423.67 397 2637.67 424 2845 478 3052.33 532 3258.33 613.333 3463 722L3463 178C3256.33 90.6667 3044.67 24 2828-22 2611.33-68 2391.67-91 2169-91 1610.33-91 1168 71.3333 842 396 516 721.333 353 1161.33 353 1716 353 2288.67 507.667 2743 817 3079 1126.33 3415.67 1543.67 3584 2069 3584 2539.67 3584 2912 3432.33 3186 3129 3460 2826.33 3597 2414.67 3597 1894ZM3022 2063C3018 2377 2930 2627.67 2758 2815 2586 3003 2358.33 3097 2075 3097 1754.33 3097 1497.67 3006.33 1305 2825 1112.33 2643.67 1001.33 2388.33 972 2059L3022 2063Z" id="DejaVuSans-65" transform="scale(0.015625 0.015625)"/><path d="M2906 1791C2906 2207.67 2820 2530.33 2648 2759 2476.67 2988.33 2235.67 3103 1925 3103 1617 3103 1377 2988.33 1205 2759 1033 2530.33 947 2207.67 947 1791 947 1376.33 1033 1054.33 1205 825 1377 595.667 1617 481 1925 481 2235.67 481 2476.67 595.667 2648 825 2820 1054.33 2906 1376.33 2906 1791ZM3481 434C3481-161.333 3348.67-604.333 3084-895 2820-1185.67 2415-1331 1869-1331 1667-1331 1476.33-1316 1297-1286 1117.67-1256 943.667-1209.67 775-1147L775-588C943.667-679.333 1110.33-746.667 1275-790 1439.67-834 1607.33-856 1778-856 2155.33-856 2437.67-757.667 2625-561 2812.33-364.333 2906-67 2906 331L2906 616C2787.33 409.333 2635.33 255 2450 153 2264.67 51 2042.67 0 1784 0 1355.33 0 1009.67 163.333 747 490 484.333 817.333 353 1251 353 1791 353 2332.33 484.333 2766.33 747 3093 1009.67 3420.33 1355.33 3584 1784 3584 2042.67 3584 2264.67 3533 2450 3431 2635.33 3329 2787.33 3175 2906 2969L2906 3500 3481 3500 3481 434Z" id="DejaVuSans-67" transform="scale(0.015625 0.015625)"/><path d="M628 4666 1478 4666 3547 763 3547 4666 4159 4666 4159 0 3309 0 1241 3903 1241 0 628 0 628 4666Z" id="DejaVuSans-4e" transform="scale(0.015625 0.015625)"/><path d="M628 4666 3309 4666 3309 4134 1259 4134 1259 2759 3109 2759 3109 2228 1259 2228 1259 0 628 0 628 4666Z" id="DejaVuSans-46" transform="scale(0.015625 0.015625)"/></defs><use width="100%" height="100%" xlink:href="#DejaVuSans-52"></use><use x="64.9824" width="100%" height="100%" xlink:href="#DejaVuSans-65"></use><use x="126.506" width="100%" height="100%" xlink:href="#DejaVuSans-67"></use><use x="189.982" width="100%" height="100%" xlink:href="#DejaVuSans-4e"></use><use x="264.787" width="100%" height="100%" xlink:href="#DejaVuSans-65"></use><use x="326.311" width="100%" height="100%" xlink:href="#DejaVuSans-52"></use><use x="395.793" width="100%" height="100%" xlink:href="#DejaVuSans-46"></use></g></g><g id="text_13"><g fill="#000080" opacity="0.99" transform="matrix(0.24 0 0 -0.24 271.253 143.307)"><defs><path d="M2631 2963C2566.33 3000.33 2496 3027.67 2420 3045 2344 3063 2260.33 3072 2169 3072 1843.67 3072 1594 2966.33 1420 2755 1246 2543.67 1159 2240 1159 1844L1159 0 581 0 581 3500 1159 3500 1159 2956C1280.33 3168.67 1437.67 3326.33 1631 3429 1825 3532.33 2060.67 3584 2338 3584 2377.33 3584 2421 3581.33 2469 3576 2517 3571.33 2570 3563.67 2628 3553L2631 2963Z" id="DejaVuSans-72" transform="scale(0.015625 0.015625)"/></defs><use width="100%" height="100%" xlink:href="#DejaVuSans-46"></use><use x="50.2695" width="100%" height="100%" xlink:href="#DejaVuSans-72"></use><use x="89.1328" width="100%" height="100%" xlink:href="#DejaVuSans-65"></use><use x="150.656" width="100%" height="100%" xlink:href="#DejaVuSans-65"></use><use x="212.18" width="100%" height="100%" xlink:href="#DejaVuSans-4e"></use><use x="286.984" width="100%" height="100%" xlink:href="#DejaVuSans-65"></use><use x="348.508" width="100%" height="100%" xlink:href="#DejaVuSans-52"></use><use x="417.99" width="100%" height="100%" xlink:href="#DejaVuSans-46"></use></g></g><g id="text_14"><g fill="#FF2F01" opacity="0.99" transform="matrix(0.24 0 0 -0.24 231.253 96.2044)"><defs><path d="M3425 4513 3425 3897C3185.67 4011.67 2959.67 4097 2747 4153 2534.33 4209.67 2329 4238 2131 4238 1787.67 4238 1522.67 4171.33 1336 4038 1149.33 3904.67 1056 3715 1056 3469 1056 3262.33 1118 3106.33 1242 3001 1366 2896.33 1601 2811.67 1947 2747L2328 2669C2798.67 2579 3146 2421 3370 2195 3594 1969 3706 1666.67 3706 1288 3706 835.333 3554.33 492.333 3251 259 2948.33 25.6667 2504.33-91 1919-91 1698.33-91 1463.33-66 1214-16 965.333 34 707.667 108 441 206L441 856C697 712.667 948 604.333 1194 531 1440 458.333 1681.67 422 1919 422 2279 422 2557 492.667 2753 634 2949 776 3047 978.333 3047 1241 3047 1469.67 2976.67 1648.67 2836 1778 2695.33 1907.33 2464.67 2004.33 2144 2069L1759 2144C1288.33 2237.33 947.667 2384 737 2584 527 2784 422 3062.33 422 3419 422 3831.67 567.333 4156.67 858 4394 1148.67 4631.33 1549 4750 2059 4750 2278.33 4750 2501.33 4730 2728 4690 2955.33 4650.67 3187.67 4591.67 3425 4513Z" id="DejaVuSans-53" transform="scale(0.015625 0.015625)"/><path d="M1159 525 1159-1331 581-1331 581 3500 1159 3500 1159 2969C1280.33 3177 1433 3331.33 1617 3432 1801.67 3533.33 2022 3584 2278 3584 2703.33 3584 3048.67 3415.33 3314 3078 3580 2740.67 3713 2297 3713 1747 3713 1197 3580 753 3314 415 3048.67 77.6667 2703.33-91 2278-91 2022-91 1801.67-40.3333 1617 61 1433 162.333 1280.33 317 1159 525ZM3116 1747C3116 2169.67 3029 2501.33 2855 2742 2681 2982.67 2442 3103 2138 3103 1833.33 3103 1594 2982.67 1420 2742 1246 2501.33 1159 2169.67 1159 1747 1159 1324.33 1246 992.667 1420 752 1594 511.333 1833.33 391 2138 391 2442 391 2681 511.333 2855 752 3029 992.667 3116 1324.33 3116 1747Z" id="DejaVuSans-70" transform="scale(0.015625 0.015625)"/><path d="M2194 1759C1729.33 1759 1407.33 1706 1228 1600 1048.67 1494 959 1312.67 959 1056 959 852 1026.33 690 1161 570 1295.67 450.667 1478.33 391 1709 391 2028.33 391 2284.33 504 2477 730 2669.67 956 2766 1256.33 2766 1631L2766 1759 2194 1759ZM3341 1997 3341 0 2766 0 2766 531C2634.67 319 2471 162.333 2275 61 2079-40.3333 1839.33-91 1556-91 1198-91 913 9.66667 701 211 489.667 412.333 384 681.667 384 1019 384 1412.33 515.667 1709 779 1909 1043 2109 1436.33 2209 1959 2209L2766 2209 2766 2266C2766 2530.67 2679 2735.33 2505 2880 2331 3024.67 2086.67 3097 1772 3097 1572 3097 1377 3073 1187 3025 997.667 2977 815.667 2905 641 2809L641 3341C851 3422.33 1055 3483 1253 3523 1451 3563.67 1643.67 3584 1831 3584 2337.67 3584 2716 3452.67 2966 3190 3216 2928 3341 2530.33 3341 1997Z" id="DejaVuSans-61" transform="scale(0.015625 0.015625)"/><path d="M2834 3397 2834 2853C2672 2936.33 2503.33 2998.67 2328 3040 2153.33 3082 1972 3103 1784 3103 1498.67 3103 1284.67 3059.33 1142 2972 999.333 2884.67 928 2753.33 928 2578 928 2444.67 979 2340 1081 2264 1183 2188 1388.33 2115.67 1697 2047L1894 2003C2302 1915.67 2592 1792.33 2764 1633 2936 1473.67 3022 1251.33 3022 966 3022 640.667 2893.33 383 2636 193 2378.67 3.66667 2025-91 1575-91 1387.67-91 1192.33-72.6667 989-36 785.667 0.666667 571.667 55.3333 347 128L347 722C559.667 611.333 769 528.333 975 473 1181 418.333 1385.33 391 1588 391 1858.67 391 2066.67 437.333 2212 530 2358 622.667 2431 753.333 2431 922 2431 1078 2378.33 1197.67 2273 1281 2168.33 1364.33 1937.67 1444.67 1581 1522L1381 1569C1025 1643.67 767.667 1758.67 609 1914 451 2069.33 372 2282.33 372 2553 372 2882.33 488.667 3136.33 722 3315 955.333 3494.33 1286.67 3584 1716 3584 1928 3584 2127.67 3568.33 2315 3537 2503 3506.33 2676 3459.67 2834 3397Z" id="DejaVuSans-73" transform="scale(0.015625 0.015625)"/></defs><use width="100%" height="100%" xlink:href="#DejaVuSans-53"></use><use x="63.4766" width="100%" height="100%" xlink:href="#DejaVuSans-70"></use><use x="126.953" width="100%" height="100%" xlink:href="#DejaVuSans-61"></use><use x="188.232" width="100%" height="100%" xlink:href="#DejaVuSans-72"></use><use x="229.346" width="100%" height="100%" xlink:href="#DejaVuSans-73"></use><use x="281.445" width="100%" height="100%" xlink:href="#DejaVuSans-65"></use><use x="342.969" width="100%" height="100%" xlink:href="#DejaVuSans-4e"></use><use x="417.773" width="100%" height="100%" xlink:href="#DejaVuSans-65"></use><use x="479.297" width="100%" height="100%" xlink:href="#DejaVuSans-52"></use><use x="548.779" width="100%" height="100%" xlink:href="#DejaVuSans-46"></use></g></g><g id="text_15"><g fill="#5A9200" opacity="0.99" transform="matrix(0.24 0 0 -0.24 129.119 249.325)"><defs><path d="M1259 4147 1259 519 2022 519C2666 519 3137.33 664.667 3436 956 3734.67 1248 3884 1708.67 3884 2338 3884 2962.67 3734.67 3420.33 3436 3711 3137.33 4001.67 2666 4147 2022 4147L1259 4147ZM628 4666 1925 4666C2829 4666 3492.33 4478 3915 4102 4338.33 3726 4550 3138 4550 2338 4550 1533.33 4337.33 942.333 3912 565 3487.33 188.333 2825 0 1925 0L628 0 628 4666Z" id="DejaVuSans-44" transform="scale(0.015625 0.015625)"/><path d="M603 3500 1178 3500 1178 0 603 0 603 3500ZM603 4863 1178 4863 1178 4134 603 4134 603 4863Z" id="DejaVuSans-69" transform="scale(0.015625 0.015625)"/><path d="M1172 4494 1172 3500 2356 3500 2356 3053 1172 3053 1172 1153C1172 867.667 1211 684.333 1289 603 1367 521.667 1526 481 1766 481L2356 481 2356 0 1766 0C1322 0 1015.67 82.6667 847 248 678.333 414 594 715.667 594 1153L594 3053 172 3053 172 3500 594 3500 594 4494 1172 4494Z" id="DejaVuSans-74" transform="scale(0.015625 0.015625)"/></defs><use width="100%" height="100%" xlink:href="#DejaVuSans-44"></use><use x="77.002" width="100%" height="100%" xlink:href="#DejaVuSans-69"></use><use x="104.785" width="100%" height="100%" xlink:href="#DejaVuSans-65"></use><use x="166.309" width="100%" height="100%" xlink:href="#DejaVuSans-74"></use><use x="205.518" width="100%" height="100%" xlink:href="#DejaVuSans-4e"></use><use x="280.322" width="100%" height="100%" xlink:href="#DejaVuSans-65"></use><use x="341.846" width="100%" height="100%" xlink:href="#DejaVuSans-52"></use><use x="411.328" width="100%" height="100%" xlink:href="#DejaVuSans-46"></use></g></g><g id="text_16"><g fill="#800000" opacity="0.99" transform="matrix(0.24 0 0 -0.24 614.472 142.213)"><defs><path d="M2597 2516C2899 2451.33 3134.67 2316.67 3304 2112 3474 1908 3559 1656 3559 1356 3559 896 3400.67 539.667 3084 287 2767.33 35 2317.33-91 1734-91 1538.67-91 1337.33-71.6667 1130-33 922.667 5.66667 708.667 63.6667 488 141L488 750C662.667 648 854 571 1062 519 1270.67 467 1488.67 441 1716 441 2111.33 441 2412.67 519 2620 675 2827.33 831 2931 1058 2931 1356 2931 1631.33 2834.67 1846.33 2642 2001 2449.33 2156.33 2181.33 2234 1838 2234L1294 2234 1294 2753 1863 2753C2173 2753 2410.33 2815 2575 2939 2739.67 3063 2822 3241.67 2822 3475 2822 3714.33 2737 3898 2567 4026 2397.67 4154.67 2154.67 4219 1838 4219 1664.67 4219 1479 4200 1281 4162 1083 4124.67 865.333 4066.67 628 3988L628 4550C868 4616.67 1092.67 4666.67 1302 4700 1511.33 4733.33 1708.67 4750 1894 4750 2373.33 4750 2752.33 4641 3031 4423 3310.33 4205.67 3450 3911.67 3450 3541 3450 3282.33 3376 3064 3228 2886 3080 2708 2869.67 2584.67 2597 2516Z" id="DejaVuSans-33" transform="scale(0.015625 0.015625)"/><path d="M313 2009 1997 2009 1997 1497 313 1497 313 2009Z" id="DejaVuSans-2d" transform="scale(0.015625 0.015625)"/><path d="M3809 666 3809 1919 2778 1919 2778 2438 4434 2438 4434 434C4190.67 261.333 3922 130.667 3628 42 3334.67-46.6667 3021.33-91 2688-91 1958.67-91 1388 122 976 548 564.667 974.667 359 1568 359 2328 359 3090.67 564.667 3685 976 4111 1388 4537 1958.67 4750 2688 4750 2992 4750 3281 4712.33 3555 4637 3829 4562.33 4081.67 4452 4313 4306L4313 3634C4079.67 3832 3831.67 3981 3569 4081 3306.33 4181 3030.33 4231 2741 4231 2169.67 4231 1740.67 4071.67 1454 3753 1168 3434.33 1025 2959.33 1025 2328 1025 1698.67 1168 1224.67 1454 906 1740.67 587.333 2169.67 428 2741 428 2963.67 428 3162.33 447.333 3337 486 3512.33 524.667 3669.67 584.667 3809 666Z" id="DejaVuSans-47" transform="scale(0.015625 0.015625)"/></defs><use width="100%" height="100%" xlink:href="#DejaVuSans-33"></use><use x="63.623" width="100%" height="100%" xlink:href="#DejaVuSans-44"></use><use x="140.625" width="100%" height="100%" xlink:href="#DejaVuSans-2d"></use><use x="180.334" width="100%" height="100%" xlink:href="#DejaVuSans-47"></use><use x="257.824" width="100%" height="100%" xlink:href="#DejaVuSans-53"></use></g></g><g id="text_17"><g fill="#0010FF" opacity="0.99" transform="matrix(0.24 0 0 -0.24 629.216 52.1542)"><defs><path d="M2522 4238C2063.33 4238 1699 4067 1429 3725 1159.67 3383.67 1025 2918 1025 2328 1025 1740.67 1159.67 1276 1429 934 1699 592.667 2063.33 422 2522 422 2980 422 3343 592.667 3611 934 3879 1276 4013 1740.67 4013 2328 4013 2918 3879 3383.67 3611 3725 3343 4067 2980 4238 2522 4238ZM2522 4750C3176 4750 3698.67 4530.67 4090 4092 4482 3653.33 4678 3065.33 4678 2328 4678 1592.67 4482 1005.67 4090 567 3698.67 128.333 3176-91 2522-91 1866-91 1341.33 127.667 948 565 555.333 1003 359 1590.67 359 2328 359 3065.33 555.333 3653.33 948 4092 1341.33 4530.67 1866 4750 2522 4750Z" id="DejaVuSans-4f" transform="scale(0.015625 0.015625)"/><path d="M544 1381 544 3500 1119 3500 1119 1403C1119 1071.67 1183.33 823 1312 657 1441.33 491.667 1635.33 409 1894 409 2204 409 2449 508 2629 706 2809.67 904 2900 1174 2900 1516L2900 3500 3475 3500 3475 0 2900 0 2900 538C2760.67 325.333 2598.67 167.333 2414 64 2230-39.3333 2016-91 1772-91 1370-91 1064.67 34 856 284 648 534 544 899.667 544 1381ZM1991 3584 1991 3584Z" id="DejaVuSans-75" transform="scale(0.015625 0.015625)"/></defs><use width="100%" height="100%" xlink:href="#DejaVuSans-4f"></use><use x="78.7109" width="100%" height="100%" xlink:href="#DejaVuSans-75"></use><use x="142.09" width="100%" height="100%" xlink:href="#DejaVuSans-72"></use><use x="183.203" width="100%" height="100%" xlink:href="#DejaVuSans-73"></use></g></g></g></g></svg>